<svg width="414" height="8" viewBox="0 0 414 8" fill="none" xmlns="http://www.w3.org/2000/svg">
<path d="M418.352 4.35524C418.548 4.16092 418.55 3.84434 418.355 3.64814L415.188 0.450973C414.994 0.254779 414.678 0.253265 414.481 0.44759C414.285 0.641916 414.284 0.958495 414.478 1.15469L417.293 3.99662L414.451 6.81148C414.255 7.0058 414.253 7.32238 414.448 7.51858C414.642 7.71477 414.958 7.71629 415.155 7.52196L418.352 4.35524ZM-0.00239232 2.49999L0.992846 2.50476L0.99763 1.50477L0.00239232 1.50001L-0.00239232 2.49999ZM2.98332 2.51428L4.9738 2.5238L4.97858 1.52382L2.98811 1.51429L2.98332 2.51428ZM6.96427 2.53333L8.95475 2.54285L8.95953 1.54286L6.96906 1.53334L6.96427 2.53333ZM10.9452 2.55238L12.9357 2.5619L12.9405 1.56191L10.95 1.55239L10.9452 2.55238ZM14.9262 2.57142L16.9167 2.58095L16.9214 1.58096L14.931 1.57143L14.9262 2.57142ZM18.9071 2.59047L20.8976 2.59999L20.9024 1.60001L18.9119 1.59048L18.9071 2.59047ZM22.8881 2.60952L24.8786 2.61904L24.8833 1.61905L22.8929 1.60953L22.8881 2.60952ZM26.869 2.62857L28.8595 2.63809L28.8643 1.6381L26.8738 1.62858L26.869 2.62857ZM30.85 2.64761L32.8405 2.65714L32.8453 1.65715L30.8548 1.64762L30.85 2.64761ZM34.8309 2.66666L36.8214 2.67618L36.8262 1.6762L34.8357 1.66667L34.8309 2.66666ZM38.8119 2.68571L40.8024 2.69523L40.8072 1.69524L38.8167 1.68572L38.8119 2.68571ZM42.7928 2.70476L44.7833 2.71428L44.7881 1.71429L42.7976 1.70477L42.7928 2.70476ZM46.7738 2.7238L48.7643 2.73333L48.769 1.73334L46.7786 1.72382L46.7738 2.7238ZM50.7547 2.74285L52.7452 2.75238L52.75 1.75239L50.7595 1.74286L50.7547 2.74285ZM54.7357 2.7619L56.7262 2.77142L56.731 1.77143L54.7405 1.76191L54.7357 2.7619ZM58.7166 2.78095L60.7071 2.79047L60.7119 1.79048L58.7214 1.78096L58.7166 2.78095ZM62.6976 2.79999L64.6881 2.80952L64.6929 1.80953L62.7024 1.80001L62.6976 2.79999ZM66.6785 2.81904L68.669 2.82857L68.6738 1.82858L66.6833 1.81905L66.6785 2.81904ZM70.6595 2.83809L72.65 2.84761L72.6548 1.84762L70.6643 1.8381L70.6595 2.83809ZM74.6405 2.85714L76.6309 2.86666L76.6357 1.86667L74.6452 1.85715L74.6405 2.85714ZM78.6214 2.87618L80.6119 2.88571L80.6167 1.88572L78.6262 1.8762L78.6214 2.87618ZM82.6024 2.89523L84.5929 2.90476L84.5976 1.90477L82.6072 1.89524L82.6024 2.89523ZM86.5833 2.91428L88.5738 2.9238L88.5786 1.92382L86.5881 1.91429L86.5833 2.91428ZM90.5643 2.93333L92.5548 2.94285L92.5596 1.94286L90.5691 1.93334L90.5643 2.93333ZM94.5452 2.95238L96.5357 2.9619L96.5405 1.96191L94.55 1.95239L94.5452 2.95238ZM98.5262 2.97142L100.517 2.98095L100.521 1.98096L98.531 1.97143L98.5262 2.97142ZM102.507 2.99047L104.498 2.99999L104.502 2.00001L102.512 1.99048L102.507 2.99047ZM106.488 3.00952L108.479 3.01904L108.483 2.01905L106.493 2.00953L106.488 3.00952ZM110.469 3.02857L112.46 3.03809L112.464 2.0381L110.474 2.02858L110.469 3.02857ZM114.45 3.04761L116.441 3.05714L116.445 2.05715L114.455 2.04762L114.45 3.04761ZM118.431 3.06666L120.421 3.07619L120.426 2.0762L118.436 2.06667L118.431 3.06666ZM122.412 3.08571L124.402 3.09523L124.407 2.09524L122.417 2.08572L122.412 3.08571ZM126.393 3.10476L128.383 3.11428L128.388 2.11429L126.398 2.10477L126.393 3.10476ZM130.374 3.1238L132.364 3.13333L132.369 2.13334L130.379 2.12382L130.374 3.1238ZM134.355 3.14285L136.345 3.15238L136.35 2.15239L134.36 2.14286L134.355 3.14285ZM138.336 3.1619L140.326 3.17142L140.331 2.17143L138.341 2.16191L138.336 3.1619ZM142.317 3.18095L144.307 3.19047L144.312 2.19048L142.321 2.18096L142.317 3.18095ZM146.298 3.19999L148.288 3.20952L148.293 2.20953L146.302 2.20001L146.298 3.19999ZM150.279 3.21904L152.269 3.22857L152.274 2.22858L150.283 2.21905L150.279 3.21904ZM154.259 3.23809L156.25 3.24761L156.255 2.24762L154.264 2.2381L154.259 3.23809ZM158.24 3.25714L160.231 3.26666L160.236 2.26667L158.245 2.25715L158.24 3.25714ZM162.221 3.27618L164.212 3.28571L164.217 2.28572L162.226 2.2762L162.221 3.27618ZM166.202 3.29523L168.193 3.30476L168.198 2.30477L166.207 2.29524L166.202 3.29523ZM170.183 3.31428L172.174 3.3238L172.179 2.32381L170.188 2.31429L170.183 3.31428ZM174.164 3.33333L176.155 3.34285L176.159 2.34286L174.169 2.33334L174.164 3.33333ZM178.145 3.35237L180.136 3.3619L180.14 2.36191L178.15 2.35239L178.145 3.35237ZM182.126 3.37142L184.117 3.38095L184.121 2.38096L182.131 2.37143L182.126 3.37142ZM186.107 3.39047L188.098 3.39999L188.102 2.40001L186.112 2.39048L186.107 3.39047ZM190.088 3.40952L192.078 3.41904L192.083 2.41905L190.093 2.40953L190.088 3.40952ZM194.069 3.42857L196.059 3.43809L196.064 2.4381L194.074 2.42858L194.069 3.42857ZM198.05 3.44761L200.04 3.45714L200.045 2.45715L198.055 2.44762L198.05 3.44761ZM202.031 3.46666L204.021 3.47618L204.026 2.4762L202.036 2.46667L202.031 3.46666ZM206.012 3.48571L208.002 3.49523L208.007 2.49524L206.017 2.48572L206.012 3.48571ZM209.993 3.50476L211.983 3.51428L211.988 2.51429L209.997 2.50477L209.993 3.50476ZM213.974 3.5238L215.964 3.53333L215.969 2.53334L213.978 2.52381L213.974 3.5238ZM217.955 3.54285L219.945 3.55237L219.95 2.55239L217.959 2.54286L217.955 3.54285ZM221.936 3.5619L223.926 3.57142L223.931 2.57143L221.94 2.56191L221.936 3.5619ZM225.916 3.58095L227.907 3.59047L227.912 2.59048L225.921 2.58096L225.916 3.58095ZM229.897 3.59999L231.888 3.60952L231.893 2.60953L229.902 2.6L229.897 3.59999ZM233.878 3.61904L235.869 3.62856L235.874 2.62858L233.883 2.61905L233.878 3.61904ZM237.859 3.63809L239.85 3.64761L239.855 2.64762L237.864 2.6381L237.859 3.63809ZM241.84 3.65714L243.831 3.66666L243.835 2.66667L241.845 2.65715L241.84 3.65714ZM245.821 3.67618L247.812 3.68571L247.816 2.68572L245.826 2.6762L245.821 3.67618ZM249.802 3.69523L251.793 3.70475L251.797 2.70477L249.807 2.69524L249.802 3.69523ZM253.783 3.71428L255.774 3.7238L255.778 2.72381L253.788 2.71429L253.783 3.71428ZM257.764 3.73333L259.755 3.74285L259.759 2.74286L257.769 2.73334L257.764 3.73333ZM261.745 3.75237L263.735 3.7619L263.74 2.76191L261.75 2.75239L261.745 3.75237ZM265.726 3.77142L267.716 3.78095L267.721 2.78096L265.731 2.77143L265.726 3.77142ZM269.707 3.79047L271.697 3.79999L271.702 2.8L269.712 2.79048L269.707 3.79047ZM273.688 3.80952L275.678 3.81904L275.683 2.81905L273.693 2.80953L273.688 3.80952ZM277.669 3.82856L279.659 3.83809L279.664 2.8381L277.674 2.82858L277.669 3.82856ZM281.65 3.84761L283.64 3.85714L283.645 2.85715L281.655 2.84762L281.65 3.84761ZM285.631 3.86666L287.621 3.87618L287.626 2.8762L285.636 2.86667L285.631 3.86666ZM289.612 3.88571L291.602 3.89523L291.607 2.89524L289.617 2.88572L289.612 3.88571ZM293.593 3.90476L295.583 3.91428L295.588 2.91429L293.598 2.90477L293.593 3.90476ZM297.574 3.9238L299.564 3.93333L299.569 2.93334L297.579 2.92381L297.574 3.9238ZM301.555 3.94285L303.545 3.95238L303.55 2.95239L301.559 2.94286L301.555 3.94285ZM305.536 3.9619L307.526 3.97142L307.531 2.97143L305.54 2.96191L305.536 3.9619ZM309.517 3.98095L311.507 3.99047L311.512 2.99048L309.521 2.98096L309.517 3.98095ZM313.498 3.99999L315.488 4.00952L315.493 3.00953L313.502 3.00001L313.498 3.99999ZM317.479 4.01904L319.469 4.02857L319.474 3.02858L317.483 3.01905L317.479 4.01904ZM321.46 4.03809L323.45 4.04761L323.455 3.04763L321.464 3.0381L321.46 4.03809ZM325.441 4.05714L327.431 4.06666L327.436 3.06667L325.445 3.05715L325.441 4.05714ZM329.422 4.07619L331.412 4.08571L331.417 3.08572L329.426 3.0762L329.422 4.07619ZM333.402 4.09523L335.393 4.10476L335.398 3.10477L333.407 3.09524L333.402 4.09523ZM337.383 4.11428L339.374 4.1238L339.379 3.12382L337.388 3.11429L337.383 4.11428ZM341.364 4.13333L343.355 4.14285L343.36 3.14286L341.369 3.13334L341.364 4.13333ZM345.345 4.15238L347.336 4.1619L347.341 3.16191L345.35 3.15239L345.345 4.15238ZM349.326 4.17142L351.317 4.18095L351.322 3.18096L349.331 3.17144L349.326 4.17142ZM353.307 4.19047L355.298 4.2L355.303 3.20001L353.312 3.19048L353.307 4.19047ZM357.288 4.20952L359.279 4.21904L359.284 3.21905L357.293 3.20953L357.288 4.20952ZM361.269 4.22857L363.26 4.23809L363.265 3.2381L361.274 3.22858L361.269 4.22857ZM365.25 4.24761L367.241 4.25714L367.246 3.25715L365.255 3.24763L365.25 4.24761ZM369.231 4.26666L371.222 4.27619L371.227 3.2762L369.236 3.26667L369.231 4.26666ZM373.212 4.28571L375.203 4.29523L375.208 3.29525L373.217 3.28572L373.212 4.28571ZM377.193 4.30476L379.184 4.31428L379.188 3.31429L377.198 3.30477L377.193 4.30476ZM381.174 4.32381L383.165 4.33333L383.169 3.33334L381.179 3.32382L381.174 4.32381ZM385.155 4.34285L387.146 4.35238L387.15 3.35239L385.16 3.34286L385.155 4.34285ZM389.136 4.3619L391.127 4.37142L391.131 3.37144L389.141 3.36191L389.136 4.3619ZM393.117 4.38095L395.108 4.39047L395.112 3.39048L393.122 3.38096L393.117 4.38095ZM397.098 4.4L399.089 4.40952L399.093 3.40953L397.103 3.40001L397.098 4.4ZM401.079 4.41904L403.07 4.42857L403.074 3.42858L401.084 3.41906L401.079 4.41904ZM405.06 4.43809L407.05 4.44762L407.055 3.44763L405.065 3.4381L405.06 4.43809ZM409.041 4.45714L411.031 4.46666L411.036 3.46667L409.046 3.45715L409.041 4.45714ZM413.022 4.47619L415.012 4.48571L415.017 3.48572L413.027 3.4762L413.022 4.47619ZM417.003 4.49524L417.998 4.49999L418.002 3.50001L417.008 3.49525L417.003 4.49524Z" fill="#BFBFBF"/>
</svg>
