<svg width="15" height="83" viewBox="0 0 15 83" fill="none" xmlns="http://www.w3.org/2000/svg">
<g clip-path="url(#clip0_1018_900)">
<path d="M7.5 0C3.36437 0 0 3.37125 0 7.51375C0 13.7181 7.00063 19.6756 7.29875 19.9263C7.35445 19.9737 7.42512 20 7.49829 20.0005C7.57147 20.0009 7.64246 19.9755 7.69875 19.9287C7.99687 19.6825 15 13.8275 15 7.51375C15 3.37125 11.6356 0 7.5 0ZM7.50125 19.2738C6.35063 18.2456 0.625 12.8619 0.625 7.51375C0.625 3.715 3.70937 0.625 7.5 0.625C11.2906 0.625 14.375 3.715 14.375 7.51375C14.375 12.9525 8.655 18.2594 7.50125 19.2738Z" fill="#71C725"/>
<path d="M7.5 3.75C5.43187 3.75 3.75 5.43187 3.75 7.5C3.75 9.56812 5.43187 11.25 7.5 11.25C9.56812 11.25 11.25 9.56812 11.25 7.5C11.25 5.43187 9.56812 3.75 7.5 3.75ZM7.5 10.625C5.77688 10.625 4.375 9.22312 4.375 7.5C4.375 5.77688 5.77688 4.375 7.5 4.375C9.22312 4.375 10.625 5.77688 10.625 7.5C10.625 9.22312 9.22312 10.625 7.5 10.625Z" fill="#71C725"/>
</g>
<line x1="7.5" y1="20" x2="7.5" y2="63" stroke="#DEDEDE" stroke-dasharray="2 2"/>
<g clip-path="url(#clip1_1018_900)">
<path d="M7.5 63C3.36437 63 0 66.3713 0 70.5138C0 76.7181 7.00063 82.6756 7.29875 82.9263C7.35445 82.9737 7.42512 83 7.49829 83.0005C7.57147 83.0009 7.64246 82.9755 7.69875 82.9287C7.99687 82.6825 15 76.8275 15 70.5138C15 66.3713 11.6356 63 7.5 63ZM7.50125 82.2738C6.35063 81.2456 0.625 75.8619 0.625 70.5138C0.625 66.715 3.70937 63.625 7.5 63.625C11.2906 63.625 14.375 66.715 14.375 70.5138C14.375 75.9525 8.655 81.2594 7.50125 82.2738Z" fill="#71C725"/>
<path d="M7.5 66.75C5.43187 66.75 3.75 68.4319 3.75 70.5C3.75 72.5681 5.43187 74.25 7.5 74.25C9.56812 74.25 11.25 72.5681 11.25 70.5C11.25 68.4319 9.56812 66.75 7.5 66.75ZM7.5 73.625C5.77688 73.625 4.375 72.2231 4.375 70.5C4.375 68.7769 5.77688 67.375 7.5 67.375C9.22312 67.375 10.625 68.7769 10.625 70.5C10.625 72.2231 9.22312 73.625 7.5 73.625Z" fill="#71C725"/>
</g>
<defs>
<clipPath id="clip0_1018_900">
<rect width="15" height="20" fill="white"/>
</clipPath>
<clipPath id="clip1_1018_900">
<rect width="15" height="20" fill="white" transform="translate(0 63)"/>
</clipPath>
</defs>
</svg>
