<svg width="16" height="15" viewBox="0 0 16 15" fill="none" xmlns="http://www.w3.org/2000/svg">
<path d="M10.7 3.15789V3.65789H11.2H14.4C15.0181 3.65789 15.5 4.14289 15.5 4.73684V13.4211C15.5 14.015 15.0181 14.5 14.4 14.5H1.6C0.981952 14.5 0.500115 14.0151 0.5 13.4213C0.5 13.4212 0.5 13.4211 0.5 13.4211L0.508 4.7373V4.73684C0.508 4.13963 0.985168 3.65789 1.6 3.65789H4.8H5.3V3.15789V1.57895C5.3 0.984997 5.78188 0.5 6.4 0.5H9.6C10.2181 0.5 10.7 0.984997 10.7 1.57895V3.15789ZM9.6 3.65789H10.1V3.15789V1.57895V1.07895H9.6H6.4H5.9V1.57895V3.15789V3.65789H6.4H9.6Z" stroke="#71C725"/>
</svg>
