<svg width="10" height="6" viewBox="0 0 10 6" fill="none" xmlns="http://www.w3.org/2000/svg">
<path d="M4.83878 0.002882C6.25995 0.002882 7.67824 0.002882 9.09941 0.002882C9.3012 0.002882 9.4684 0.0605367 9.58371 0.230616C9.71343 0.420874 9.70766 0.663021 9.56353 0.844631C9.49723 0.925346 9.42516 1.0003 9.35309 1.07525C8.04146 2.47047 6.72984 3.8657 5.42109 5.26381C5.06075 5.64721 4.61393 5.64721 4.25936 5.26669C2.90449 3.82246 1.54962 2.38111 0.191873 0.936877C0.0707992 0.807156 -0.0127988 0.668786 0.00161465 0.484293C0.0189109 0.227733 0.226465 0.0172955 0.483025 0.002882C0.529149 -7.03827e-07 0.575272 0 0.624277 0C2.02815 0.0028827 3.43491 0.002882 4.83878 0.002882Z" fill="#868889"/>
</svg>
