<svg width="66" height="66" viewBox="0 0 66 66" fill="none" xmlns="http://www.w3.org/2000/svg">
<circle cx="33" cy="33" r="33" fill="#EBFFD7"/>
<path d="M54.865 28.1505C54.865 28.1505 50.931 22.8952 50.9286 22.8922C50.9276 22.8908 50.8418 22.7385 50.5775 22.6544L34.1841 18.0255C34.0636 17.9915 33.9363 17.9915 33.8158 18.0255L17.4224 22.6544C17.4224 22.6544 17.1986 22.719 17.0641 22.9005C17.0103 22.9733 13.1351 28.1505 13.1351 28.1505C13.0051 28.3243 12.9661 28.5498 13.0303 28.7571C13.0946 28.9644 13.2543 29.1284 13.4598 29.1981L16.9291 30.3755V39.7904C16.9291 40.0646 17.0943 40.3117 17.3478 40.4164L33.7413 47.1906C33.7901 47.2107 33.8518 47.242 34 47.242C34.1481 47.242 34.2586 47.1906 34.2586 47.1906L50.6522 40.4164C50.9057 40.3117 51.0709 40.0645 51.0709 39.7904V30.3753L54.5402 29.1979C54.7456 29.1282 54.9053 28.9641 54.9696 28.7569C55.0338 28.5498 54.9948 28.3243 54.865 28.1505ZM14.7791 28.215L17.872 24.0822L19.1229 24.4268L26.1632 26.3661L32.8211 28.2003L28.9163 33.013L14.7791 28.215ZM33.3226 45.5515L18.2839 39.3373V30.8352L28.9276 34.4479C28.9989 34.4723 29.0723 34.4837 29.1452 34.4837C29.3454 34.4837 29.5401 34.3948 29.6712 34.2331L33.3227 29.7326L33.3226 45.5515ZM34 27.12L20.1279 23.2984L34 19.3812L47.8721 23.2984L34 27.12ZM49.7161 39.3373L34.6773 45.5515V29.7328L38.3288 34.2332C38.4599 34.3948 38.6546 34.4839 38.8548 34.4839C38.9277 34.4839 39.0011 34.4725 39.0725 34.4481L49.7161 30.8354V39.3373ZM39.0837 33.0132L35.1789 28.2005L50.128 24.0822L53.221 28.215L39.0837 33.0132Z" fill="#28B446"/>
</svg>
