<svg width="24" height="23" viewBox="0 0 24 23" fill="none" xmlns="http://www.w3.org/2000/svg">
<path d="M23.6469 4.95815C23.4328 4.58711 23.1261 4.2779 22.7568 4.0607C22.3876 3.84349 21.9683 3.72569 21.54 3.71879H5.67625L4.95742 0.91785C4.88479 0.64747 4.72276 0.409645 4.49772 0.24311C4.27267 0.0765751 3.99787 -0.00885737 3.71807 0.000726858H1.23936C0.910658 0.000726858 0.595423 0.131301 0.362999 0.363726C0.130574 0.59615 0 0.911385 0 1.24008C0 1.56878 0.130574 1.88401 0.362999 2.11644C0.595423 2.34886 0.910658 2.47944 1.23936 2.47944H2.77616L6.19678 15.1952C6.2694 15.4656 6.43143 15.7034 6.65648 15.87C6.88153 16.0365 7.15633 16.1219 7.43613 16.1123H18.5903C18.8192 16.1117 19.0434 16.0476 19.2381 15.9273C19.4328 15.807 19.5904 15.6351 19.6934 15.4307L23.7584 7.30053C23.9346 6.93122 24.0167 6.52404 23.9972 6.11531C23.9777 5.70659 23.8574 5.30904 23.6469 4.95815ZM17.8219 13.6336H8.37804L6.35789 6.1975H21.54L17.8219 13.6336Z" fill="#868889"/>
<path d="M6.81646 22.3089C7.84318 22.3089 8.67549 21.4766 8.67549 20.4499C8.67549 19.4231 7.84318 18.5908 6.81646 18.5908C5.78975 18.5908 4.95743 19.4231 4.95743 20.4499C4.95743 21.4766 5.78975 22.3089 6.81646 22.3089Z" fill="#868889"/>
<path d="M19.21 22.3089C20.2367 22.3089 21.069 21.4766 21.069 20.4499C21.069 19.4231 20.2367 18.5908 19.21 18.5908C18.1833 18.5908 17.351 19.4231 17.351 20.4499C17.351 21.4766 18.1833 22.3089 19.21 22.3089Z" fill="#868889"/>
</svg>
