<svg width="28" height="28" viewBox="0 0 28 28" fill="none" xmlns="http://www.w3.org/2000/svg">
<path d="M13.9999 0C11.231 0 8.52425 0.821085 6.22196 2.35942C3.91967 3.89776 2.12526 6.08426 1.06563 8.64243C0.00600494 11.2006 -0.271242 14.0155 0.268951 16.7313C0.809144 19.447 2.14251 21.9416 4.10045 23.8995C6.05838 25.8574 8.55294 27.1908 11.2687 27.731C13.9844 28.2712 16.7993 27.9939 19.3575 26.9343C21.9157 25.8747 24.1022 24.0803 25.6405 21.778C27.1788 19.4757 27.9999 16.7689 27.9999 14C27.9999 12.1615 27.6378 10.341 26.9342 8.64243C26.2307 6.94387 25.1994 5.40052 23.8994 4.1005C22.5994 2.80048 21.0561 1.76925 19.3575 1.06569C17.6589 0.362121 15.8384 0 13.9999 0ZM13.9999 25.2C11.7848 25.2 9.61939 24.5431 7.77756 23.3125C5.93573 22.0818 4.50019 20.3326 3.65249 18.286C2.80479 16.2395 2.583 13.9876 3.01515 11.815C3.4473 9.6424 4.514 7.64675 6.08035 6.0804C7.64669 4.51405 9.64234 3.44736 11.8149 3.0152C13.9875 2.58305 16.2395 2.80485 18.286 3.65255C20.3325 4.50025 22.0817 5.93578 23.3124 7.77761C24.5431 9.61944 25.1999 11.7848 25.1999 14C25.1999 16.9704 24.0199 19.8192 21.9195 21.9196C19.8191 24.02 16.9704 25.2 13.9999 25.2Z" fill="#6CC51D"/>
<path d="M13.9999 7C12.6155 7 11.2621 7.41054 10.1109 8.17971C8.95981 8.94888 8.0626 10.0421 7.53279 11.3212C7.00297 12.6003 6.86435 14.0078 7.13445 15.3656C7.40454 16.7235 8.07123 17.9708 9.05019 18.9497C10.0292 19.9287 11.2764 20.5954 12.6343 20.8655C13.9922 21.1356 15.3996 20.997 16.6787 20.4672C17.9578 19.9373 19.0511 19.0401 19.8202 17.889C20.5894 16.7378 20.9999 15.3845 20.9999 14C20.9999 12.1435 20.2624 10.363 18.9497 9.05025C17.6369 7.7375 15.8565 7 13.9999 7Z" fill="#6CC51D"/>
</svg>
