<svg width="15" height="15" viewBox="0 0 15 15" fill="none" xmlns="http://www.w3.org/2000/svg">
<path d="M3.21429 0C2.3618 0 1.54424 0.338647 0.941443 0.941443C0.338647 1.54424 0 2.3618 0 3.21429V11.7857C0 12.6382 0.338647 13.4558 0.941443 14.0586C1.54424 14.6614 2.3618 15 3.21429 15H11.7857C12.6382 15 13.4558 14.6614 14.0586 14.0586C14.6614 13.4558 15 12.6382 15 11.7857V3.21429C15 2.3618 14.6614 1.54424 14.0586 0.941443C13.4558 0.338647 12.6382 0 11.7857 0H3.21429ZM1.07143 3.21429C1.07143 2.64596 1.29719 2.10092 1.69906 1.69906C2.10092 1.29719 2.64596 1.07143 3.21429 1.07143H11.7857C12.354 1.07143 12.8991 1.29719 13.3009 1.69906C13.7028 2.10092 13.9286 2.64596 13.9286 3.21429V11.7857C13.9286 12.354 13.7028 12.8991 13.3009 13.3009C12.8991 13.7028 12.354 13.9286 11.7857 13.9286H3.21429C2.64596 13.9286 2.10092 13.7028 1.69906 13.3009C1.29719 12.8991 1.07143 12.354 1.07143 11.7857V3.21429ZM11.6293 5.20071C11.7299 5.10012 11.7864 4.96369 11.7864 4.82143C11.7864 4.67917 11.7299 4.54274 11.6293 4.44214C11.5287 4.34155 11.3923 4.28504 11.25 4.28504C11.1077 4.28504 10.9713 4.34155 10.8707 4.44214L5.89286 9.42107L4.12929 7.65643C4.02869 7.55584 3.89226 7.49932 3.75 7.49932C3.60774 7.49932 3.47131 7.55584 3.37071 7.65643C3.27012 7.75702 3.21361 7.89345 3.21361 8.03571C3.21361 8.17797 3.27012 8.31441 3.37071 8.415L5.51357 10.5579C5.56333 10.6077 5.62245 10.6473 5.68754 10.6743C5.75262 10.7013 5.82239 10.7152 5.89286 10.7152C5.96332 10.7152 6.03309 10.7013 6.09818 10.6743C6.16326 10.6473 6.22238 10.6077 6.27214 10.5579L11.6293 5.20071Z" fill="#868889"/>
</svg>
