<svg width="23" height="36" viewBox="0 0 23 36" fill="none" xmlns="http://www.w3.org/2000/svg">
<path d="M1.84619 14.3486C1.84619 14.0394 1.93309 13.7363 2.09699 13.4741L5.97119 7.27505H17.5212L21.3954 13.4741C21.5593 13.7363 21.6462 14.0394 21.6462 14.3486V32.8501C21.6462 33.2877 21.4724 33.7073 21.1629 34.0168C20.8535 34.3262 20.4338 34.5001 19.9962 34.5001H3.49619C3.05858 34.5001 2.6389 34.3262 2.32947 34.0168C2.02003 33.7073 1.84619 33.2877 1.84619 32.8501V14.3486Z" stroke="#0FADB4" stroke-width="2" stroke-linecap="round" stroke-linejoin="round"/>
<path d="M7.62122 25.425V18L11.7462 22.95L15.8712 18V25.425" stroke="#0FADB4" stroke-width="2" stroke-linecap="round" stroke-linejoin="round"/>
<path d="M5.97119 1.5H17.5212V7.275H5.97119V1.5Z" stroke="#0FADB4" stroke-width="2" stroke-linecap="round" stroke-linejoin="round"/>
</svg>
