<svg width="66" height="66" viewBox="0 0 66 66" fill="none" xmlns="http://www.w3.org/2000/svg">
<circle cx="33" cy="33" r="33" fill="#F5F5F5"/>
<path fill-rule="evenodd" clip-rule="evenodd" d="M18 32.5C18 28.6544 19.5277 24.9662 22.247 22.247C24.9662 19.5277 28.6544 18 32.5 18C36.3456 18 40.0338 19.5277 42.753 22.247C45.4723 24.9662 47 28.6544 47 32.5C47 36.3456 45.4723 40.0338 42.753 42.753C40.0338 45.4723 36.3456 47 32.5 47C28.6544 47 24.9662 45.4723 22.247 42.753C19.5277 40.0338 18 36.3456 18 32.5ZM31.6725 38.706L40.0207 28.2699L38.5127 27.0635L31.3941 35.9587L26.352 31.7576L25.1147 33.2424L31.6725 38.7079V38.706Z" fill="#868889"/>
</svg>
