<svg width="27" height="35" viewBox="0 0 27 35" fill="none" xmlns="http://www.w3.org/2000/svg">
<path d="M14.3598 10.7041C14.9488 9.72049 15.8808 8.31273 17.0581 6.96192H17.0595C18.0565 5.81547 20.0091 4.34405 20.0091 4.34405C20.3026 4.12226 20.2711 3.81337 19.9374 3.65792L17.5774 2.55503C17.2437 2.3989 16.7901 2.51281 16.569 2.80696C16.569 2.80696 14.8235 5.31092 12.7691 10.6411C6.41693 7.76798 0.379028 11.7923 0.379028 18.7902C0.379028 26.0998 6.00283 37.2031 13.608 33.8515C21.6179 37.3177 26.841 26.1004 26.841 18.7902C26.841 11.732 21.4135 7.59377 14.3598 10.7041Z" fill="#F8644A"/>
<path d="M12.937 8.3368C13.3042 8.30598 13.6285 7.981 13.6579 7.61449C13.6579 7.61449 13.8938 4.75607 11.9017 2.76202C9.90361 0.767292 7.05049 1.00516 7.05049 1.00516C6.6833 1.03598 6.35899 1.36095 6.32884 1.72747C6.32884 1.72747 6.08896 4.58722 8.08373 6.58195C10.0772 8.57467 12.937 8.3368 12.937 8.3368Z" fill="#F8644A"/>
</svg>
