<svg width="32" height="35" viewBox="0 0 32 35" fill="none" xmlns="http://www.w3.org/2000/svg">
<path d="M27.8399 11.9748C24.9707 13.1703 21.9809 13.9262 18.9174 14.2338L20.3616 11.7323L25.2864 12.0279C25.8334 12.0607 26.3036 11.6439 26.3364 11.0969C26.3692 10.5499 25.9524 10.0798 25.4054 10.0469L21.471 9.81076L22.3461 8.29504L27.271 8.59067C27.818 8.62348 28.2881 8.20666 28.3209 7.65965C28.3537 7.11265 27.9369 6.64258 27.3899 6.6097L23.4555 6.37354L24.5547 4.46977C25.6506 2.57136 28.0781 1.92096 29.9765 3.01696C31.8749 4.11302 32.5253 6.54044 31.4292 8.43885L29.8781 11.1255L27.8399 11.9748Z" fill="#AE80FF"/>
<path d="M15.7547 14.3917C14.438 14.3917 13.1318 14.3104 11.8394 14.149C11.8047 13.904 11.7856 13.654 11.7856 13.3994C11.7856 10.4767 14.1549 8.10733 17.0777 8.10733C18.0511 8.10733 18.9623 8.37127 19.7458 8.82977L16.5402 14.382C16.2788 14.3885 16.017 14.3917 15.7547 14.3917Z" fill="#AE80FF"/>
<path d="M10.5014 10.2862C9.76818 8.34713 9.63389 6.88803 9.63197 6.86567C9.58547 6.31966 9.10501 5.916 8.5592 5.96099C8.01318 6.00742 7.60814 6.48775 7.65458 7.03376C7.66668 7.17625 7.94227 10.1711 9.80238 13.4672C9.8035 13.5882 9.80846 13.7084 9.81547 13.828C7.71894 13.4246 5.66488 12.8062 3.66923 11.9747L2.47487 11.477C2.63178 11.0923 2.85061 10.7338 3.1248 10.4175C1.77776 9.82025 0.870501 8.47897 0.870501 6.94975C0.870501 4.85236 2.57681 3.14605 4.6742 3.14605C5.00654 3.14605 5.33551 3.19064 5.65754 3.27895C6.1073 1.65851 7.58102 0.5 9.30479 0.5C10.9836 0.5 12.4371 1.59447 12.9268 3.16338C13.0438 3.15181 13.1591 3.14605 13.2739 3.14605C15.0876 3.14605 16.608 4.42251 16.9862 6.12405C14.126 6.15944 11.6581 7.85318 10.5014 10.2862Z" fill="#AE80FF"/>
<path d="M2.90604 13.8066C6.99835 15.5118 11.3213 16.3763 15.7547 16.3763C20.1881 16.3763 24.511 15.5118 28.6033 13.8066C29.2994 13.5165 30.0519 14.0783 29.9715 14.8282C29.6409 17.9135 28.4444 29.2011 28.1767 31.7089C28.0148 33.2256 26.7423 34.3694 25.2167 34.3694H6.29265C4.76707 34.3694 3.49458 33.2256 3.33264 31.7088C3.06493 29.2011 1.86839 17.9135 1.53783 14.8282C1.45745 14.0783 2.20993 13.5165 2.90604 13.8066ZM8.14727 27.7543C8.14727 28.3023 8.59154 28.7466 9.13954 28.7466H22.3698C22.9178 28.7466 23.3621 28.3023 23.3621 27.7543V22.4622C23.3621 21.9142 22.9178 21.4699 22.3698 21.4699H9.13954C8.59154 21.4699 8.14727 21.9142 8.14727 22.4622V27.7543Z" fill="#AE80FF"/>
<path d="M21.3774 23.4545H10.1317V26.762H21.3774V23.4545Z" fill="#AE80FF"/>
</svg>
