<svg width="19" height="18" viewBox="0 0 19 18" fill="none" xmlns="http://www.w3.org/2000/svg">
<path d="M0.748161 9.20549L9.38075 0.550216L9.38123 0.54974C9.39702 0.533863 9.41569 0.521357 9.43612 0.512855C9.45654 0.504354 9.47838 0.5 9.50039 0.5C9.52241 0.5 9.54424 0.504354 9.56467 0.512855C9.5851 0.521356 9.60376 0.533862 9.61956 0.549743L9.62003 0.550216L18.2526 9.20549C18.2527 9.20553 18.2527 9.20557 18.2528 9.20562C18.5822 9.53633 18.5822 10.0728 18.254 10.4034L18.2533 10.4041C18.0967 10.5626 17.8835 10.651 17.6595 10.651H16.7499H16.2499V11.151V17.3271C16.2499 17.4247 16.1724 17.5 16.0792 17.5H11.0064V13.2896V12.7896H10.5064H8.15906H7.65906V13.2896V17.5H2.92159C2.82835 17.5 2.75092 17.4247 2.75092 17.3271V11.151V10.651H2.25092H1.34133C0.879224 10.651 0.5 10.2729 0.5 9.80513C0.5 9.58055 0.589649 9.36453 0.748161 9.20549Z" stroke="#8BBA4D"/>
</svg>
