<svg width="12" height="20" viewBox="0 0 12 20" fill="none" xmlns="http://www.w3.org/2000/svg">
<path d="M6 0C2.6856 0 0 2.78799 0 6.2414C0 12.2126 6 20 6 20C6 20 12 12.2114 12 6.2414C12 2.78924 9.3144 0 6 0ZM6 9.69481C5.1407 9.69481 4.31659 9.33901 3.70897 8.70568C3.10136 8.07235 2.76 7.21336 2.76 6.3177C2.76 5.42203 3.10136 4.56305 3.70897 3.92972C4.31659 3.29639 5.1407 2.94059 6 2.94059C6.8593 2.94059 7.68341 3.29639 8.29103 3.92972C8.89864 4.56305 9.24 5.42203 9.24 6.3177C9.24 7.21336 8.89864 8.07235 8.29103 8.70568C7.68341 9.33901 6.8593 9.69481 6 9.69481Z" fill="#BBBCC1"/>
</svg>
