<svg width="32" height="32" viewBox="0 0 32 32" fill="none" xmlns="http://www.w3.org/2000/svg">
<path d="M30.3861 5.22271C30.1188 4.95528 29.8013 4.74323 29.4519 4.5987C29.1024 4.45417 28.7279 4.38001 28.3498 4.38046C28.0589 4.38046 27.7675 4.42412 27.4877 4.51195C27.6797 3.89642 27.6599 3.23432 27.4315 2.63137C27.203 2.02842 26.7792 1.51941 26.2275 1.18561C25.6759 0.851808 25.0283 0.712478 24.3882 0.789867C23.7481 0.867257 23.1524 1.1569 22.6962 1.61255C21.0853 3.22344 22.2738 5.22321 22.1499 6.23554C22.1078 6.58026 21.5955 7.26868 20.9827 7.98503C18.9424 6.19543 16.9207 4.90946 15.9353 5.14858C15.3753 5.28464 13.9325 6.45181 12.278 7.97944L25.3834 18.1789C26.1987 17.2122 26.7572 16.437 26.848 16.0618C27.0922 15.0551 25.7469 12.9659 23.8969 10.8814C24.6122 10.3041 25.3108 9.8462 25.7306 9.8462L25.7621 9.84722C25.8144 9.84062 25.8682 9.83808 25.9251 9.83808C26.5201 9.83808 27.3781 10.1544 28.2878 10.1544C28.989 10.1544 29.7205 9.96653 30.3861 9.30095C30.6539 9.03318 30.8663 8.71527 31.0113 8.3654C31.1562 8.01553 31.2308 7.64053 31.2308 7.26183C31.2308 6.88312 31.1562 6.50813 31.0113 6.15826C30.8663 5.80838 30.6539 5.49048 30.3861 5.22271ZM15.4246 6.69347L15.9323 6.18579L16.44 6.69347L15.9328 7.20116L15.4246 6.69347ZM16.5456 9.92845L16.0379 9.42076L16.5456 8.91257L17.0533 9.42026L16.5456 9.92845ZM17.2015 8.21653L16.44 7.455L17.2015 6.69347L17.963 7.455L17.2015 8.21653ZM18.851 10.3168L18.3433 9.80914L18.851 9.30146L19.3587 9.80914L18.851 10.3168ZM29.6682 8.58359C29.2839 8.96791 28.858 9.13951 28.2878 9.13951C27.8842 9.13951 27.4649 9.05624 27.0592 8.97552C26.6643 8.89734 26.2906 8.82322 25.9251 8.82322C25.8535 8.82322 25.786 8.82576 25.72 8.83185C25.0447 8.83794 24.139 9.37609 23.2013 10.1254C22.7288 9.62624 22.2414 9.14135 21.7397 8.67142C22.6155 7.63574 23.0973 6.85746 23.1582 6.35942C23.214 5.90402 23.1211 5.43492 23.0221 4.9384C22.8003 3.82149 22.7084 3.03661 23.4141 2.33042C23.5873 2.15633 23.7934 2.01829 24.0203 1.92427C24.2472 1.83025 24.4905 1.78211 24.7361 1.78262C24.9815 1.78216 25.2246 1.83032 25.4514 1.92435C25.6781 2.01837 25.884 2.15638 26.0571 2.33042C26.5495 2.82287 26.7257 3.54328 26.518 4.20987C26.4629 4.38678 26.4572 4.57542 26.5016 4.75534C26.5459 4.93525 26.6387 5.0996 26.7698 5.23055C26.901 5.36151 27.0654 5.45409 27.2454 5.49826C27.4253 5.54242 27.614 5.5365 27.7908 5.48112C27.9719 5.4246 28.1606 5.39584 28.3503 5.39583C28.8483 5.39583 29.3164 5.58976 29.6687 5.94057C30.0181 6.29171 30.2141 6.76689 30.214 7.26219C30.2139 7.75749 30.0177 8.23259 29.6682 8.58359Z" fill="#764DBE"/>
<path d="M5.15147 15.9329C4.91184 16.9188 6.19781 18.9409 7.98741 20.9813C7.27106 21.5936 6.58264 22.1058 6.23792 22.148C6.18368 22.1546 6.12908 22.1578 6.07444 22.1576C5.47943 22.1576 4.62144 21.8413 3.71218 21.8413C3.01106 21.8413 2.28 22.0292 1.61442 22.6947C1.15811 23.1506 0.867883 23.7464 0.790168 24.3867C0.712454 25.027 0.851742 25.6749 1.18575 26.2267C1.51976 26.7785 2.02919 27.2024 2.63254 27.4304C3.23589 27.6585 3.89831 27.6776 4.51382 27.4848C4.3566 27.987 4.33981 28.5227 4.46528 29.0337C4.59075 29.5448 4.85368 30.0118 5.22559 30.3841C5.49313 30.6522 5.81096 30.8647 6.16084 31.0096C6.51072 31.1545 6.88577 31.2288 7.26446 31.2284C7.6433 31.2288 8.01849 31.1544 8.36853 31.0095C8.71857 30.8647 9.03658 30.6521 9.30434 30.3841C10.9152 28.7722 9.72674 26.772 9.8496 25.7596C9.82574 25.3438 10.2913 24.628 10.8832 23.8949C12.9683 25.7454 15.0574 27.0903 16.0647 26.8461C16.4937 26.742 17.4446 26.0287 18.6102 25.0138L6.98422 13.3883C5.96834 14.553 5.25504 15.5034 5.15147 15.9329ZM10.1288 23.2009C9.38913 24.1279 8.85606 25.0255 8.83423 25.7043C8.79513 26.1384 8.88398 26.5851 8.97739 27.0568C9.19976 28.1742 9.29216 28.9601 8.58648 29.6663C8.41309 29.8401 8.20701 29.978 7.98012 30.0718C7.75322 30.1656 7.51 30.2137 7.26446 30.2131C6.97135 30.2133 6.6823 30.1445 6.42073 30.0123C6.15916 29.88 5.93244 29.6879 5.75894 29.4517C5.58544 29.2155 5.47004 28.9417 5.4221 28.6525C5.37415 28.3633 5.39501 28.0669 5.48299 27.7873C5.53824 27.6106 5.54403 27.4221 5.49973 27.2423C5.45543 27.0625 5.36273 26.8982 5.23168 26.7674C5.10084 26.6362 4.93655 26.5433 4.75664 26.4989C4.57673 26.4545 4.3881 26.4603 4.21123 26.5156C4.02975 26.5719 3.84078 26.6005 3.65075 26.6004C3.40572 26.601 3.16298 26.5532 2.93652 26.4596C2.71006 26.366 2.50436 26.2285 2.33127 26.0551C1.97894 25.7013 1.78449 25.2321 1.78449 24.7336C1.78449 24.2351 1.97894 23.766 2.33229 23.4121C2.71661 23.0278 3.14205 22.8562 3.71167 22.8562C4.11477 22.8562 4.53412 22.9394 4.93926 23.0197C5.33424 23.0978 5.70789 23.1725 6.07343 23.1725C6.17293 23.1725 6.26939 23.1664 6.36027 23.1557C6.85831 23.0948 7.63659 22.613 8.67227 21.7372C9.14279 22.2398 9.62854 22.7279 10.1288 23.2009ZM8.8657 16.6583L9.37339 17.166L8.8657 17.6737L8.35802 17.166L8.8657 16.6583ZM7.68076 16.468L7.17308 16.9751L6.66539 16.468L7.17308 15.9603L7.68076 16.468Z" fill="#764DBE"/>
<path d="M7.38489 12.9325L19.3851 24.323C21.2447 22.6329 23.44 20.4113 24.9706 18.6603L11.4494 8.75732C10.0375 10.1047 8.55815 11.6217 7.38489 12.9325ZM10.9326 12.7086L10.4249 12.201L10.9326 11.6933L11.4403 12.201L10.9326 12.7086ZM14.4864 15.0628L13.9787 15.5705L13.471 15.0628L13.9782 14.5551L14.4864 15.0628ZM12.7095 13.5397L13.471 14.3013L12.7095 15.0628L11.948 14.3013L12.7095 13.5397Z" fill="#764DBE"/>
</svg>
