<svg width="40" height="40" viewBox="0 0 40 40" fill="none" xmlns="http://www.w3.org/2000/svg">
<path d="M36 0H4C1.79086 0 0 1.79086 0 4V36C0 38.2091 1.79086 40 4 40H36C38.2091 40 40 38.2091 40 36V4C40 1.79086 38.2091 0 36 0Z" fill="#95D03A" fill-opacity="0.3"/>
<path d="M18.8556 27.965C18.5137 27.8617 18.2879 27.623 18.0943 27.3327C16.5587 24.9906 15.0102 22.6549 13.4682 20.3193C12.8036 19.3128 12.3262 18.2224 12.1003 17.0287C11.9132 16.0222 11.9971 15.0351 12.2745 14.0608C12.6939 12.622 13.5004 11.4348 14.6747 10.4993C15.5457 9.80891 16.5264 9.33791 17.6168 9.1379C20.0364 8.69271 22.1591 9.32501 23.9269 11.0413C25.0431 12.1187 25.6948 13.4608 25.9271 14.9964C26.1722 16.6287 25.7851 18.1449 24.9786 19.545C24.3528 20.6354 23.6301 21.6678 22.9398 22.7194C21.9333 24.255 20.9138 25.7906 19.9073 27.3262C19.7138 27.6165 19.4944 27.8553 19.146 27.9585C19.0556 27.965 18.9524 27.965 18.8556 27.965ZM19.004 27.1843C19.0815 27.081 19.1331 27.01 19.1847 26.9326C20.0299 25.6551 20.8751 24.3841 21.7139 23.1001C22.5591 21.8033 23.4172 20.5128 24.2366 19.2031C24.7592 18.3643 25.0689 17.4223 25.1528 16.4352C25.2883 14.7963 24.8109 13.3253 23.7527 12.08C22.2881 10.3573 20.3977 9.62825 18.1459 9.90569C17.1458 10.0283 16.2426 10.4025 15.4231 10.9896C14.3198 11.7832 13.5521 12.822 13.1262 14.1124C12.8552 14.9383 12.752 15.7835 12.8681 16.6481C13.0294 17.8223 13.494 18.874 14.1392 19.8547C15.7006 22.2291 17.2684 24.6034 18.8363 26.9778C18.8814 27.0294 18.9331 27.0875 19.004 27.1843Z" fill="black"/>
<path d="M19.0105 19.7127C16.9652 19.7192 15.3005 18.0545 15.3005 16.0092C15.3005 13.9704 16.9652 12.2993 19.0105 12.2993C21.0493 12.2993 22.7075 13.9575 22.7139 15.9963C22.7139 18.0416 21.0622 19.7063 19.0105 19.7127ZM19.0298 13.1252C17.4684 13.0994 16.1522 14.3833 16.1199 15.977C16.0877 17.5448 17.3716 18.8675 18.9524 18.8998C20.546 18.9256 21.8623 17.6481 21.8881 16.048C21.9139 14.4608 20.6299 13.151 19.0298 13.1252Z" fill="black"/>
</svg>
