<svg width="40" height="40" viewBox="0 0 40 40" fill="none" xmlns="http://www.w3.org/2000/svg">
<path d="M36 0H4C1.79086 0 0 1.79086 0 4V36C0 38.2091 1.79086 40 4 40H36C38.2091 40 40 38.2091 40 36V4C40 1.79086 38.2091 0 36 0Z" fill="#95D03A" fill-opacity="0.3"/>
<path d="M13.5109 27.2386C13.3372 27.1843 13.1527 27.1463 12.9845 27.0703C12.3333 26.7718 11.9751 26.2834 11.9751 25.5508C11.9751 21.5512 11.9751 17.557 11.9751 13.5574C11.9751 12.5588 12.7511 11.7665 13.7551 11.7502C14.2815 11.7394 14.8079 11.7502 15.3669 11.7502C15.3669 11.5494 15.3669 11.3541 15.3669 11.1587C15.3669 10.8331 15.4809 10.7028 15.8119 10.6974C16.1809 10.6866 16.5554 10.692 16.9244 10.692C17.0167 10.692 17.0655 10.6757 17.1089 10.5834C17.4725 9.8074 18.0912 9.41124 18.9432 9.42209C19.7952 9.42752 20.441 9.78027 20.7992 10.5834C20.8209 10.6323 20.9077 10.6866 20.962 10.6866C21.3093 10.6974 21.6567 10.692 22.004 10.692C22.1017 10.692 22.2048 10.6974 22.297 10.7245C22.4978 10.7788 22.5738 10.8874 22.5792 11.0881C22.5847 11.2998 22.5792 11.5169 22.5792 11.7502C22.7854 11.7502 22.9754 11.7448 23.1653 11.7502C23.5995 11.7557 24.0391 11.7339 24.4678 11.7882C25.3144 11.8913 25.971 12.6565 25.971 13.5085C25.9765 17.5461 25.9765 21.5837 25.971 25.6213C25.971 26.4028 25.3849 27.0486 24.5709 27.206C24.5275 27.2168 24.4841 27.2277 24.4406 27.244C20.7992 27.2385 17.1523 27.2386 13.5109 27.2386ZM15.3669 12.6185C15.3235 12.6077 15.3126 12.5968 15.3018 12.5968C14.8242 12.5968 14.3521 12.5914 13.8745 12.5914C13.2016 12.5914 12.8163 12.9767 12.8163 13.6496C12.8163 17.5896 12.8163 21.5295 12.8163 25.4694C12.8163 25.5182 12.8163 25.5616 12.8163 25.6105C12.8217 25.8655 12.9357 26.0663 13.1473 26.2074C13.3535 26.3485 13.5815 26.392 13.8257 26.392C17.2555 26.392 20.6852 26.392 24.1096 26.392C24.2073 26.392 24.305 26.3865 24.4027 26.3702C24.8639 26.2943 25.1244 25.9849 25.1244 25.5182C25.1244 21.5512 25.1244 17.5841 25.1244 13.6116C25.1244 13.0093 24.7337 12.6077 24.1259 12.5968C23.7731 12.5914 23.4204 12.5968 23.0622 12.5968C22.9048 12.5968 22.7529 12.5968 22.6064 12.5968C22.5901 12.624 22.5792 12.6348 22.5792 12.6457C22.5738 12.9333 22.5738 13.2263 22.5738 13.514C22.5738 13.9101 22.411 14.0784 22.0203 14.0784C19.9797 14.0784 17.9338 14.0784 15.8933 14.0784C15.5134 14.0784 15.356 13.9156 15.356 13.5357C15.3669 13.2318 15.3669 12.9279 15.3669 12.6185ZM21.7272 11.5386C21.3636 11.5386 21.0163 11.5386 20.669 11.5386C20.3108 11.5386 20.186 11.4409 20.0883 11.099C19.9309 10.54 19.4208 10.171 18.8672 10.2144C18.3625 10.2524 17.9447 10.616 17.7927 11.1424C17.7113 11.43 17.5648 11.544 17.2663 11.544C17.1578 11.544 17.0438 11.544 16.9353 11.544C16.7019 11.544 16.4631 11.544 16.2352 11.544C16.2352 12.1247 16.2352 12.6782 16.2352 13.2318C18.0749 13.2318 19.8983 13.2318 21.7272 13.2318C21.7272 12.6619 21.7272 12.1138 21.7272 11.5386Z" fill="black"/>
<path d="M20.9892 16.4175C21.7815 16.4175 22.5793 16.4175 23.3716 16.4175C23.6158 16.4175 23.784 16.5314 23.8383 16.7268C23.9034 16.9602 23.7569 17.2098 23.5127 17.2532C23.4367 17.2641 23.3608 17.2695 23.2902 17.2695C21.7598 17.2695 20.2294 17.2695 18.6991 17.2695C18.6339 17.2695 18.5688 17.2695 18.5091 17.2641C18.2812 17.2369 18.1292 17.0633 18.1347 16.8408C18.1347 16.6183 18.2975 16.4446 18.5254 16.4283C18.6774 16.4175 18.8293 16.4229 18.9758 16.4229C19.6433 16.4175 20.3163 16.4175 20.9892 16.4175Z" fill="black"/>
<path d="M21.0055 23.2065C21.7761 23.2065 22.5467 23.2065 23.3174 23.2065C23.4042 23.2065 23.491 23.212 23.5724 23.2391C23.7515 23.2934 23.8601 23.467 23.8492 23.657C23.8383 23.8469 23.7135 23.9989 23.529 24.0423C23.4585 24.0586 23.3771 24.064 23.3065 24.064C21.7653 24.064 20.224 24.064 18.6828 24.064C18.6123 24.064 18.5417 24.064 18.4766 24.0477C18.2758 24.0097 18.1401 23.8523 18.1347 23.6461C18.1293 23.4399 18.2541 23.2771 18.4549 23.2283C18.5254 23.212 18.6014 23.212 18.6774 23.2065C19.4534 23.2065 20.2295 23.2065 21.0055 23.2065Z" fill="black"/>
<path d="M20.9999 19.8145C21.7922 19.8145 22.59 19.8145 23.3823 19.8145C23.6428 19.8145 23.8165 19.9447 23.849 20.1618C23.887 20.4114 23.7133 20.6339 23.4583 20.6556C23.366 20.661 23.2738 20.661 23.1815 20.661C21.662 20.661 20.1425 20.661 18.6229 20.661C18.3245 20.661 18.1454 20.5091 18.1345 20.2595C18.1237 19.999 18.2973 19.8199 18.5795 19.8199C19.1493 19.8145 19.7137 19.8199 20.2836 19.8199C20.5223 19.8145 20.7611 19.8145 20.9999 19.8145Z" fill="black"/>
<path d="M15.405 20.1566C15.8283 19.755 16.2461 19.348 16.6749 18.9518C16.7508 18.8813 16.8485 18.8107 16.9516 18.7836C17.1361 18.7293 17.3261 18.8324 17.4183 19.0007C17.516 19.1743 17.4889 19.348 17.3261 19.5054C16.8485 19.9612 16.371 20.4171 15.888 20.8729C15.812 20.9435 15.7414 21.0195 15.66 21.0846C15.4755 21.2365 15.2639 21.2311 15.0956 21.0683C14.7972 20.7753 14.5095 20.4768 14.2219 20.1729C14.0483 19.9884 14.0591 19.717 14.2219 19.5596C14.3901 19.3968 14.6398 19.4131 14.8297 19.5976C14.9274 19.6899 15.0142 19.793 15.1065 19.8852C15.2042 19.9721 15.2964 20.0589 15.405 20.1566Z" fill="black"/>
<path d="M15.405 16.7649C15.8391 16.3524 16.2679 15.94 16.702 15.5276C16.8811 15.3593 17.0602 15.3268 17.2393 15.4299C17.4943 15.571 17.554 15.8857 17.3478 16.0865C16.7888 16.6292 16.2244 17.161 15.66 17.6875C15.4864 17.8503 15.2693 17.834 15.1011 17.6657C14.8134 17.3781 14.5312 17.0905 14.2491 16.7974C14.0591 16.5966 14.0591 16.3253 14.2328 16.1625C14.401 16.0051 14.6615 16.0268 14.8514 16.2168C15.0251 16.3904 15.1988 16.5749 15.3724 16.7486C15.3724 16.754 15.3778 16.754 15.405 16.7649Z" fill="black"/>
<path d="M15.4211 23.5373C15.839 23.1357 16.2786 22.7233 16.7127 22.3054C16.9027 22.1263 17.1089 22.11 17.2934 22.2511C17.5051 22.4139 17.5431 22.6853 17.3531 22.8698C16.7941 23.4125 16.2297 23.9443 15.6654 24.4707C15.4863 24.639 15.2638 24.6227 15.0901 24.4436C14.8079 24.1614 14.5257 23.8738 14.2544 23.5861C14.0644 23.3854 14.059 23.1194 14.2272 22.9458C14.3955 22.783 14.656 22.8101 14.8622 23.0055C15.0358 23.19 15.2203 23.3528 15.4211 23.5373Z" fill="black"/>
</svg>
