<svg width="24" height="20" viewBox="0 0 24 20" fill="none" xmlns="http://www.w3.org/2000/svg">
<path d="M16.7205 11C16.9071 10.5027 17.0018 9.97586 17 9.44492C17 8.26606 16.5301 7.13547 15.6939 6.30189C14.8576 5.4683 13.7233 5 12.5406 5C12.0145 5.00061 11.4928 5.09497 11 5.27862L12.0466 6.35421C12.2057 6.32884 12.3665 6.31584 12.5276 6.31533C13.3639 6.31359 14.1668 6.64173 14.7612 7.2281C15.3555 7.81446 15.693 8.61141 15.6999 9.44492C15.6993 9.60552 15.6863 9.76583 15.6609 9.92441L16.7205 11Z" fill="#868889"/>
<path d="M23.7827 9.66962C21.2571 4.89145 16.8281 2 11.9269 2C10.5925 2.00321 9.26701 2.22325 8 2.65192L9.20656 3.8944C10.0953 3.65934 11.009 3.53826 11.9269 3.53392C16.1461 3.53392 19.9831 5.94218 22.2689 9.99941C21.4304 11.5047 20.3188 12.8322 18.9939 13.9109L20.0581 15C21.5914 13.734 22.8649 12.1701 23.8052 10.3982L24 10.0301L23.7827 9.66962Z" fill="#868889"/>
<path d="M1.89636 1.08364L5.29305 4.32727C3.14606 5.64735 1.39135 7.47329 0.198013 9.62909L0 9.97091L0.198013 10.32C2.76457 14.8509 7.26556 17.5927 12.2464 17.5927C14.1904 17.5924 16.1093 17.1722 17.8593 16.3636L21.6672 20L23 18.9091L3.19868 0L1.89636 1.08364ZM9.32185 8.17455L14.3864 13.0109C13.8142 13.3492 13.1554 13.5303 12.4824 13.5345C11.9935 13.5346 11.5093 13.4422 11.0578 13.2629C10.6063 13.0835 10.1964 12.8207 9.85172 12.4895C9.50701 12.1583 9.23429 11.7652 9.04925 11.333C8.86421 10.9008 8.7705 10.4379 8.77351 9.97091C8.78209 9.33568 8.97165 8.71468 9.32185 8.17455ZM8.21755 7.12C7.50503 8.07956 7.17107 9.24894 7.27479 10.4211C7.37851 11.5932 7.91322 12.6925 8.78425 13.5243C9.65528 14.3561 10.8064 14.8667 12.0339 14.9657C13.2613 15.0648 14.4859 14.7459 15.4907 14.0655L16.7093 15.2291C15.2986 15.8049 13.7805 16.1018 12.2464 16.1018C7.95861 16.1018 4.05927 13.8182 1.73642 9.97091C2.85117 8.08598 4.45661 6.50778 6.39735 5.38909L8.21755 7.12Z" fill="#868889"/>
</svg>
