<svg width="21" height="23" viewBox="0 0 21 23" fill="none" xmlns="http://www.w3.org/2000/svg">
<path d="M20.1761 18.7698C19.6494 17.4788 18.8849 16.306 17.9254 15.317C16.9687 14.325 15.8355 13.5342 14.5883 12.9881C14.5771 12.9823 14.5659 12.9794 14.5548 12.9736C16.2945 11.6734 17.4255 9.5554 17.4255 7.16583C17.4255 3.20729 14.3258 0 10.5 0C6.67423 0 3.57451 3.20729 3.57451 7.16583C3.57451 9.5554 4.70549 11.6734 6.44524 12.9765C6.43407 12.9823 6.4229 12.9852 6.41173 12.991C5.16067 13.5371 4.03807 14.3201 3.07465 15.3198C2.116 16.3097 1.35167 17.4822 0.823868 18.7727C0.305356 20.0362 0.0257107 21.3907 6.98301e-05 22.7631C-0.000675511 22.7939 0.00455219 22.8246 0.015445 22.8533C0.0263379 22.882 0.0426754 22.9082 0.063495 22.9303C0.0843145 22.9523 0.109195 22.9699 0.13667 22.9819C0.164145 22.9938 0.193659 23 0.223473 23H1.89899C2.02186 23 2.1196 22.8989 2.1224 22.7746C2.17825 20.544 3.04393 18.4549 4.57424 16.8715C6.15761 15.2332 8.26039 14.3317 10.5 14.3317C12.7396 14.3317 14.8424 15.2332 16.4258 16.8715C17.9561 18.4549 18.8218 20.544 18.8776 22.7746C18.8804 22.9018 18.9781 23 19.101 23H20.7765C20.8063 23 20.8359 22.9938 20.8633 22.9819C20.8908 22.9699 20.9157 22.9523 20.9365 22.9303C20.9573 22.9082 20.9737 22.882 20.9846 22.8533C20.9954 22.8246 21.0007 22.7939 20.9999 22.7631C20.972 21.3819 20.6955 20.0383 20.1761 18.7698ZM10.5 12.1357C9.21823 12.1357 8.01185 11.6185 7.10428 10.6794C6.1967 9.74033 5.69684 8.49209 5.69684 7.16583C5.69684 5.83957 6.1967 4.59133 7.10428 3.65226C8.01185 2.71319 9.21823 2.19598 10.5 2.19598C11.7818 2.19598 12.9881 2.71319 13.8957 3.65226C14.8033 4.59133 15.3032 5.83957 15.3032 7.16583C15.3032 8.49209 14.8033 9.74033 13.8957 10.6794C12.9881 11.6185 11.7818 12.1357 10.5 12.1357Z" fill="#8BBA4D"/>
</svg>
