<svg width="33" height="23" viewBox="0 0 33 23" fill="none" xmlns="http://www.w3.org/2000/svg">
<path d="M32.121 11.622C32.121 10.6091 31.2472 8.75863 29.3281 7.0906C28.2327 6.1484 26.9843 5.40036 25.6369 4.8788C25.5921 4.86204 25.5426 4.86253 25.4982 4.88018C25.4537 4.89784 25.4174 4.93139 25.3963 4.97433C25.3871 4.99208 25.3779 5.00923 25.3675 5.02699L24.7802 6.00062C23.7899 7.71067 23.2688 9.65194 23.2695 11.628C23.2703 13.6042 23.7929 15.545 24.7845 17.2543L24.7986 17.2782L25.3338 18.258C25.3622 18.31 25.4085 18.35 25.4641 18.3705C25.5198 18.391 25.5809 18.3906 25.6363 18.3694C30.1389 16.6077 32.121 13.1828 32.121 11.622ZM26.3699 11.6134C26.167 11.6399 25.9608 11.6023 25.7804 11.5057C25.6 11.4091 25.4544 11.2584 25.3639 11.0749C25.2735 10.8913 25.2428 10.684 25.2762 10.4821C25.3096 10.2802 25.4053 10.0938 25.55 9.94912C25.6947 9.80441 25.8811 9.70865 26.083 9.67527C26.2849 9.64189 26.4922 9.67257 26.6758 9.76301C26.8594 9.85344 27.01 9.99909 27.1066 10.1795C27.2032 10.3599 27.2409 10.5661 27.2143 10.769C27.1863 10.9831 27.0883 11.182 26.9356 11.3347C26.7829 11.4874 26.584 11.5854 26.3699 11.6134Z" fill="#D96931"/>
<path d="M21.3102 11.6219C21.3093 9.2989 21.9237 7.0171 23.0909 5.00857L23.0982 4.99571L23.3811 4.52604C23.4016 4.49258 23.4137 4.4547 23.4165 4.41558C23.4192 4.37647 23.4125 4.33726 23.397 4.30126C23.3815 4.26525 23.3575 4.23351 23.3271 4.20869C23.2968 4.18387 23.2609 4.1667 23.2225 4.15863C22.4298 3.99283 21.6265 3.88254 20.8185 3.82858C20.7232 3.82242 20.6318 3.78835 20.5558 3.7306C19.3752 2.8329 17.0348 1.26285 14.6491 0.85931C14.486 0.832296 14.3188 0.846957 14.163 0.901928C14.0072 0.956898 13.8677 1.05039 13.7577 1.17371C13.6478 1.29703 13.5707 1.44617 13.5339 1.60726C13.497 1.76834 13.5014 1.93613 13.5468 2.09503L14.1972 4.37112C14.2141 4.4301 14.2082 4.49329 14.1808 4.54817C14.1533 4.60305 14.1063 4.64563 14.049 4.66749C11.7925 5.5058 9.84888 7.04034 8.4313 8.20992C8.34454 8.28093 8.23605 8.32004 8.12394 8.32071C8.01183 8.32138 7.90288 8.28357 7.81528 8.2136C7.62259 8.06051 7.4248 7.90967 7.22191 7.76107C4.79457 5.98833 1.94287 5.75502 1.82285 5.74645C1.67047 5.73494 1.5175 5.75923 1.37618 5.81739C1.23486 5.87554 1.10911 5.96595 1.00897 6.08139C0.908825 6.19682 0.837073 6.33408 0.799448 6.48219C0.761822 6.63031 0.759365 6.78517 0.792273 6.9344C0.817992 7.05259 1.35502 9.42604 2.73341 11.3194C2.79546 11.4043 2.82891 11.5067 2.82891 11.6118C2.82891 11.7169 2.79546 11.8193 2.73341 11.9042C1.35502 13.797 0.817992 16.171 0.792273 16.2892C0.759365 16.4385 0.761822 16.5933 0.799448 16.7414C0.837073 16.8895 0.908825 17.0268 1.00897 17.1422C1.10911 17.2577 1.23486 17.3481 1.37618 17.4062C1.5175 17.4644 1.67047 17.4887 1.82285 17.4772C1.94532 17.4686 4.79457 17.2322 7.21885 15.4638C7.41684 15.3185 7.61014 15.1711 7.79874 15.0217C7.88641 14.9518 7.9954 14.9141 8.10751 14.9149C8.21963 14.9156 8.32808 14.9549 8.41477 15.026C9.83847 16.201 11.7857 17.7374 14.0484 18.5776C14.1056 18.5994 14.1525 18.6419 14.1799 18.6966C14.2074 18.7514 14.2133 18.8144 14.1965 18.8733L13.5438 21.15C13.4984 21.3089 13.4939 21.4767 13.5308 21.6378C13.5677 21.7989 13.6447 21.948 13.7547 22.0713C13.8647 22.1947 14.0041 22.2882 14.1599 22.3431C14.3158 22.3981 14.483 22.4128 14.646 22.3857C15.6968 22.2082 17.8229 21.5983 20.5276 19.5181C20.6049 19.4592 20.6976 19.4241 20.7946 19.4171C21.6016 19.3642 22.4041 19.2558 23.1962 19.0925C23.2336 19.0847 23.2686 19.0682 23.2985 19.0444C23.3284 19.0206 23.3523 18.9901 23.3683 18.9555C23.3843 18.9208 23.392 18.8828 23.3907 18.8446C23.3894 18.8064 23.3792 18.7691 23.3609 18.7356L23.0848 18.2279C21.921 16.2209 21.3088 13.9419 21.3102 11.6219Z" fill="#D96931"/>
</svg>
