<svg width="66" height="66" viewBox="0 0 66 66" fill="none" xmlns="http://www.w3.org/2000/svg">
<circle cx="33" cy="33" r="33" fill="#EBFFD7"/>
<path d="M22.9167 41.9998H19.25C18.744 41.9998 18.3334 41.5892 18.3334 41.0832C18.3334 40.5772 18.744 40.1665 19.25 40.1665H22.9167C23.4227 40.1665 23.8334 40.5772 23.8334 41.0832C23.8334 41.5892 23.4227 41.9998 22.9167 41.9998Z" fill="#28B446"/>
<path d="M52.7084 42H50.4167C49.9107 42 49.5 41.5893 49.5 41.0833C49.5 40.5773 49.9107 40.1667 50.4167 40.1667H51.9475L53.1832 33.5813C53.1667 30.2117 50.2884 27.3333 46.75 27.3333H40.7312L37.8144 40.1667H43.0834C43.5894 40.1667 44 40.5773 44 41.0833C44 41.5893 43.5894 42 43.0834 42H36.6667C36.388 42 36.124 41.8735 35.9499 41.6553C35.7757 41.439 35.7097 41.153 35.772 40.8817L39.105 26.215C39.2004 25.7952 39.5707 25.5 39.9997 25.5H46.75C51.2985 25.5 55 29.2015 55 33.75L53.6085 41.252C53.5279 41.6865 53.1502 42 52.7084 42Z" fill="#28B446"/>
<path d="M46.75 45.6667C44.2236 45.6667 42.1666 43.6115 42.1666 41.0833C42.1666 38.5552 44.2236 36.5 46.75 36.5C49.2763 36.5 51.3333 38.5552 51.3333 41.0833C51.3333 43.6115 49.2763 45.6667 46.75 45.6667ZM46.75 38.3333C45.2338 38.3333 44 39.5672 44 41.0833C44 42.5995 45.2338 43.8333 46.75 43.8333C48.2661 43.8333 49.5 42.5995 49.5 41.0833C49.5 39.5672 48.2661 38.3333 46.75 38.3333Z" fill="#28B446"/>
<path d="M26.5833 45.6667C24.057 45.6667 22 43.6115 22 41.0833C22 38.5552 24.057 36.5 26.5833 36.5C29.1097 36.5 31.1667 38.5552 31.1667 41.0833C31.1667 43.6115 29.1097 45.6667 26.5833 45.6667ZM26.5833 38.3333C25.0672 38.3333 23.8333 39.5672 23.8333 41.0833C23.8333 42.5995 25.0672 43.8333 26.5833 43.8333C28.0995 43.8333 29.3333 42.5995 29.3333 41.0833C29.3333 39.5672 28.0995 38.3333 26.5833 38.3333Z" fill="#28B446"/>
<path d="M22.9166 25.4998H15.5833C15.0773 25.4998 14.6666 25.0892 14.6666 24.5832C14.6666 24.0772 15.0773 23.6665 15.5833 23.6665H22.9166C23.4226 23.6665 23.8333 24.0772 23.8333 24.5832C23.8333 25.0892 23.4226 25.4998 22.9166 25.4998Z" fill="#28B446"/>
<path d="M22.9167 30.9998H13.75C13.244 30.9998 12.8334 30.5892 12.8334 30.0832C12.8334 29.5772 13.244 29.1665 13.75 29.1665H22.9167C23.4227 29.1665 23.8334 29.5772 23.8334 30.0832C23.8334 30.5892 23.4227 30.9998 22.9167 30.9998Z" fill="#28B446"/>
<path d="M22.9167 36.4998H11.9167C11.4107 36.4998 11 36.0892 11 35.5832C11 35.0772 11.4107 34.6665 11.9167 34.6665H22.9167C23.4227 34.6665 23.8333 35.0772 23.8333 35.5832C23.8333 36.0892 23.4227 36.4998 22.9167 36.4998Z" fill="#28B446"/>
<path d="M36.6667 42H30.25C29.744 42 29.3334 41.5893 29.3334 41.0833C29.3334 40.5773 29.744 40.1667 30.25 40.1667H35.9352L40.1005 21.8333H19.25C18.744 21.8333 18.3334 21.4227 18.3334 20.9167C18.3334 20.4107 18.744 20 19.25 20H41.25C41.5287 20 41.7927 20.1265 41.9669 20.3447C42.141 20.561 42.207 20.847 42.1447 21.1183L37.5614 41.285C37.466 41.7048 37.0939 42 36.6667 42Z" fill="#28B446"/>
</svg>
